# xmcd CD database file
#
# Track frame offsets:
#	150
#	10466
#	30961
#	47536
#	71920
#	81387
#	99941
#	122672
#	145501
#	165571
#
# Disc length: 2477 seconds
#
# Revision: 0
# Processed by: cddbd v1.4PL0 Copyright (c) Steve Scherf et al.
# Submitted via: CDex 1.50
#
DISCID=7709ab0a
DTITLE=De Melomaan - Melomaanzaad
DYEAR=2003
DGENRE=Nederhop
TTITLE0=De waanvertoning ( Intro )
TTITLE1=Melomaanzaad
TTITLE2=Microfoonfraude
TTITLE3=Spijt komt met de daden....
TTITLE4=Nou nou nou ( Skit )
TTITLE5=Op/afspraak
TTITLE6=Hartaanval
TTITLE7=Versteende tijdperk
TTITLE8=Melomaanzaad ( Onder de douche remix )
TTITLE9=Tot horens ( Outro )
EXTD=YEAR: 2003
EXTT0=
EXTT1=
EXTT2=
EXTT3=
EXTT4=
EXTT5=
EXTT6=
EXTT7=
EXTT8=
EXTT9=
PLAYORDER=
